<svg width="41" height="42" fill="none" xmlns="http://www.w3.org/2000/svg"><path d="M.249.249h40.104v41.502H.249z"/><path fill-rule="evenodd" clip-rule="evenodd" d="M31.5 8.097a4.422 4.422 0 1 0-8.692 1.63 4.422 4.422 0 0 0 8.692-1.63zm-5.715-6.48a7.422 7.422 0 1 1 2.738 14.59 7.422 7.422 0 0 1-2.738-14.59zm10.251 30.655a4.422 4.422 0 1 0-8.692 1.631 4.422 4.422 0 0 0 8.692-1.63zm-5.714-6.478a7.422 7.422 0 1 1 2.737 14.588 7.422 7.422 0 0 1-2.737-14.588zm-17.064-1.298a4.422 4.422 0 1 0-8.692 1.631 4.422 4.422 0 0 0 8.692-1.63zm-5.715-6.479a7.422 7.422 0 1 1 2.737 14.59 7.422 7.422 0 0 1-2.737-14.59z" fill="#92B4EA"/></svg>