<svg width="48" height="40" fill="none" xmlns="http://www.w3.org/2000/svg"><path d="M0 0h48v40H0z"/><path d="M46.487 12.203v.076l.007.065v.003l.003.068c.003.07.005.189 0 .353-.01.329-.048.84-.169 1.51-.24 1.34-.808 3.324-2.14 5.761-2.603 4.76-8.169 11.329-20.079 18.17L24 38.13l-.108.08C12.628 31.74 7.038 25.513 4.265 20.833c-2.837-4.786-2.78-8.037-2.76-8.444l.002-.054-.001-.054a2.18 2.18 0 0 0-.004-.09l-.002-.023C1.52 6.327 6.463 1.5 12.682 1.5c4.387 0 8.151 2.419 9.984 5.904l1.328 2.523 1.327-2.524C27.154 3.92 30.917 1.5 35.304 1.5c6.232 0 11.183 4.846 11.183 10.703zM23.231 38.708h0s0 0 0 0h0z" stroke="#C4C0EF" stroke-width="3"/></svg>