<svg width="136" height="136" fill="none" xmlns="http://www.w3.org/2000/svg"><path d="M0 0h136v136H0z"/><path d="M0 0h136v136H0V0z" fill="#15403D"/><path d="M38.507 63.95l-4.996 11.972h-3.016l-3.608-9.363-3.627 9.363h-3.016L15.193 63.95h2.72l3.867 9.603 3.682-9.603h2.831l3.683 9.603 3.867-9.603h2.664zm8.12 12.212c-1.579 0-2.936-.246-4.07-.74-1.136-.493-2.005-1.203-2.61-2.128-.592-.937-.888-2.054-.888-3.349 0-1.295.296-2.411.888-3.349.605-.938 1.474-1.653 2.61-2.146 1.134-.494 2.491-.74 4.07-.74 1.591 0 2.948.246 4.07.74 1.136.493 2 1.209 2.591 2.146.605.938.907 2.054.907 3.35 0 1.294-.302 2.41-.907 3.348-.592.925-1.455 1.635-2.59 2.128-1.135.494-2.492.74-4.07.74zm0-2.128c.938 0 1.783-.148 2.535-.444.765-.308 1.363-.77 1.795-1.387.444-.617.666-1.37.666-2.258 0-.888-.222-1.634-.666-2.239-.432-.617-1.03-1.073-1.795-1.369-.752-.308-1.597-.463-2.535-.463-.95 0-1.807.155-2.572.463a4.043 4.043 0 0 0-1.813 1.37c-.444.616-.666 1.362-.666 2.238 0 .888.222 1.64.666 2.258.456.604 1.06 1.06 1.813 1.369.765.308 1.622.462 2.572.462zm19.666-3.33c.975.074 1.678.284 2.11.629.431.345.647.925.647 1.74v2.849h-2.46v-2.683c0-.654-.241-1.104-.722-1.351-.482-.247-1.24-.37-2.276-.37h-4.534v4.404h-2.46V63.95h8.122c1.431 0 2.554.302 3.368.907.814.592 1.221 1.499 1.221 2.72 0 1.751-1.005 2.794-3.016 3.127zm-1.573-1.147c.642 0 1.154-.167 1.536-.5.395-.333.592-.783.592-1.35 0-.519-.197-.914-.592-1.185-.382-.284-.894-.426-1.536-.426h-5.662v3.46h5.662zm14.01-5.607c2.505 0 4.3.549 5.385 1.647 1.086 1.085 1.628 2.516 1.628 4.293 0 1.122-.24 2.14-.721 3.053-.47.9-1.228 1.622-2.276 2.165-1.036.542-2.375.814-4.015.814h-6.847V63.95h6.847zm-.055 9.844c1.64 0 2.813-.364 3.516-1.092.703-.728 1.054-1.665 1.054-2.812 0-1.135-.351-2.048-1.054-2.739-.704-.703-1.875-1.055-3.516-1.055h-4.33v7.698h4.33zm11.304-1.906c.074.654.462 1.19 1.166 1.61.703.407 1.56.61 2.572.61.875 0 1.541-.141 1.998-.425.456-.296.684-.703.684-1.221 0-.358-.135-.642-.407-.852-.27-.21-.66-.376-1.165-.5-.506-.123-1.234-.252-2.184-.388-1.616-.271-2.855-.653-3.719-1.147-.863-.506-1.295-1.277-1.295-2.313 0-1.085.462-1.949 1.388-2.59.925-.642 2.25-.962 3.978-.962 1.702 0 3.022.37 3.96 1.11.937.728 1.394 1.733 1.369 3.016h-2.406c-.037-.691-.327-1.203-.87-1.536-.542-.345-1.264-.518-2.164-.518-.864 0-1.542.13-2.035.389-.494.246-.74.629-.74 1.147 0 .382.129.684.388.906.271.21.654.377 1.147.5.494.123 1.29.277 2.387.462 1.024.16 1.875.358 2.554.593.678.222 1.22.56 1.628 1.017.407.444.61 1.03.61 1.758 0 1.16-.431 2.054-1.295 2.683-.863.63-2.177.944-3.941.944-1.357 0-2.51-.235-3.46-.703-.938-.481-1.628-1.055-2.072-1.721-.445-.679-.636-1.302-.574-1.869h2.498zM23.371 98.366c-1.579 0-2.935-.246-4.07-.74-1.135-.493-2.005-1.203-2.61-2.128-.591-.937-.887-2.053-.887-3.349 0-1.295.295-2.411.888-3.349.604-.937 1.474-1.653 2.609-2.146 1.135-.494 2.491-.74 4.07-.74 1.592 0 2.949.246 4.071.74 1.135.493 1.998 1.209 2.59 2.146.605.938.907 2.054.907 3.35 0 1.294-.302 2.41-.906 3.348-.593.925-1.456 1.635-2.59 2.128-1.136.494-2.493.74-4.072.74zm0-2.127c.938 0 1.783-.148 2.535-.445.765-.308 1.363-.77 1.795-1.387.444-.617.666-1.37.666-2.258 0-.888-.222-1.634-.666-2.239-.432-.617-1.03-1.073-1.795-1.369-.752-.308-1.597-.462-2.535-.462-.95 0-1.807.154-2.572.462a4.042 4.042 0 0 0-1.813 1.37c-.444.616-.666 1.362-.666 2.238 0 .888.222 1.64.666 2.258.456.604 1.06 1.06 1.813 1.369.765.308 1.623.463 2.572.463zm12.432-8.012v3.182h7.549v1.962h-7.55v4.755h-2.46V86.154h11.675v2.073h-9.215zm2.704 20.131l-4.996 11.972h-3.016l-3.608-9.363-3.627 9.363h-3.016l-5.051-11.972h2.72l3.867 9.603 3.682-9.603h2.831l3.683 9.603 3.867-9.603h2.664zm8.12 12.212c-1.579 0-2.936-.246-4.07-.74-1.136-.493-2.005-1.202-2.61-2.128-.592-.937-.888-2.053-.888-3.349 0-1.295.296-2.411.888-3.349.605-.937 1.474-1.653 2.61-2.146 1.134-.494 2.491-.74 4.07-.74 1.591 0 2.948.246 4.07.74 1.136.493 2 1.209 2.591 2.146.605.938.907 2.054.907 3.349 0 1.296-.302 2.412-.907 3.349-.592.926-1.455 1.635-2.59 2.128-1.135.494-2.492.74-4.07.74zm0-2.127c.938 0 1.783-.148 2.535-.445.765-.308 1.363-.77 1.795-1.387.444-.617.666-1.37.666-2.258 0-.888-.222-1.634-.666-2.239-.432-.616-1.03-1.073-1.795-1.369-.752-.308-1.597-.462-2.535-.462-.95 0-1.807.154-2.572.462a4.048 4.048 0 0 0-1.813 1.369c-.444.617-.666 1.363-.666 2.239 0 .888.222 1.641.666 2.258.456.604 1.06 1.061 1.813 1.369.765.308 1.622.463 2.572.463zm27.456-10.085v11.972h-2.461v-7.623l-4.903 7.623h-2.757l-4.904-7.605v7.605h-2.46v-11.972h2.46l6.273 9.844 6.291-9.844h2.461zm12.002 11.972l-3.386-4.385-3.479 4.385h-2.997l5.106-6.088-4.921-5.884h2.997l3.35 4.2 3.404-4.2h2.997l-5.032 5.866 5.088 6.106h-3.127zm19.1-11.972v11.972h-2.46l-8.9-8.678v8.678h-2.462v-11.972h2.461l8.901 8.715v-8.715h2.46z" fill="#FCF8F5"/></svg>