<svg width="70" height="60" fill="none" xmlns="http://www.w3.org/2000/svg"><path d="M0 0h69.419v60H0z"/><path d="M37.247 24.13a54.732 54.732 0 0 1 9.334-5.127c6.775-2.899 13.972-4.37 21.39-4.37.8 0 1.448-.654 1.448-1.463 0-.808-.648-1.463-1.447-1.463-16.308 0-31.042 6.83-41.559 17.817l-2.235-4.583a55.406 55.406 0 0 1 13.069-12.519 54.73 54.73 0 0 1 9.334-5.126c6.775-2.9 13.972-4.369 21.39-4.369.8 0 1.448-.656 1.448-1.464C69.419.655 68.77 0 67.972 0 49.67 0 33.356 8.6 22.755 22.023L21.29 19.02l-6.58 13.49L0 34.673l10.645 10.5L8.133 60l13.158-7.001L34.449 60l-2.513-14.827 10.646-10.5-2.873-.422a54.732 54.732 0 0 1 6.872-3.541c6.775-2.9 13.972-4.369 21.39-4.369.8 0 1.448-.655 1.448-1.463s-.648-1.464-1.447-1.464c-12.103 0-23.34 3.763-32.63 10.194l-7.471-1.098-.093-.188c.438-.476.881-.944 1.334-1.402a55.507 55.507 0 0 1 8.135-6.79zm-.881 12.586l-7.538 7.434 1.78 10.5-9.317-4.956-9.317 4.956 1.78-10.5-7.538-7.434 10.416-1.53 4.659-9.551 4.658 9.55 10.417 1.531z" fill="#FFB7A9"/></svg>